<svg width="12" height="14" viewBox="0 0 12 14" fill="none" xmlns="http://www.w3.org/2000/svg">
<path id="phone icon copy 2" d="M6.51488 9.80496C6.90631 9.80496 7.66121 9.0221 8.05264 8.98016C8.44148 8.94731 8.82776 9.06771 9.12907 9.31567L10.1636 10.1544L10.7926 10.6717C11.2458 11.0418 11.3203 11.7062 10.9604 12.1675L9.78611 13.8171C9.70173 13.9407 9.55789 14.0099 9.40867 13.9988C4.02269 13.4171 -0.0453176 8.84736 0.000381228 3.43025C-0.00170382 2.46245 0.125231 1.49869 0.377831 0.564427C0.405654 0.473069 0.48038 0.403681 0.573546 0.382692L2.79631 0.0192219C3.06543 -0.0337581 3.34456 0.0238303 3.57074 0.179001C3.79692 0.334172 3.95111 0.573861 3.99855 0.844019L4.19427 1.6828L4.4459 3.08076C4.52046 3.47565 4.44573 3.88416 4.23621 4.22709C4.02651 4.57658 3.03396 4.92607 2.83824 5.26158C3.39786 7.23839 4.70699 8.91869 6.48692 9.94475V9.80496H6.51488Z" fill="#404853"/>
</svg>
