<svg width="12" height="14" viewBox="0 0 12 14" fill="none" xmlns="http://www.w3.org/2000/svg">
<path id="phone icon copy" d="M6.98692 10.8101V10.1824C7.03248 10.1605 7.07384 10.1383 7.10997 10.118C7.26721 10.0297 7.43049 9.91607 7.57083 9.81767C7.5816 9.81012 7.59224 9.80265 7.60276 9.79526C7.73871 9.69987 7.85483 9.61839 7.95984 9.55528C8.06305 9.49325 8.10812 9.47914 8.11091 9.47715C8.36429 9.45989 8.61494 9.5401 8.81135 9.70175L8.81417 9.70405L9.84601 10.5407L9.84866 10.5428L10.4751 11.0579L10.4764 11.0589C10.719 11.2571 10.7589 11.6129 10.5662 11.86L10.5594 11.8686L10.5531 11.8775L9.40167 13.495C4.30134 12.9132 0.457004 8.57425 0.500363 3.43447L0.500391 3.43447L0.50038 3.42917C0.498505 2.55892 0.605973 1.69208 0.820104 0.849015L2.87699 0.512668L2.88496 0.511365L2.89288 0.509806C3.03015 0.482784 3.17252 0.512157 3.28788 0.591302C3.40324 0.670447 3.48189 0.7927 3.50609 0.930494L3.50848 0.944141L3.51163 0.957634L3.70444 1.78396L3.95381 3.16934L3.95379 3.16934L3.95458 3.17352C4.00615 3.44666 3.95446 3.72921 3.80954 3.9664L3.80953 3.96639L3.80746 3.96983C3.80891 3.96741 3.8086 3.96773 3.80563 3.97076C3.79632 3.98025 3.76088 4.01637 3.67178 4.0782C3.56617 4.15149 3.43504 4.22795 3.28146 4.31686L3.26736 4.32503C3.12621 4.40673 2.96469 4.50022 2.82591 4.59592C2.69622 4.68536 2.51534 4.82281 2.40635 5.00964L2.29925 5.19325L2.35715 5.39777C2.95226 7.49994 4.34441 9.2868 6.23721 10.3779L6.98692 10.8101Z" fill="#079FC2" stroke="white"/>
</svg>
