<svg width="40" height="48" viewBox="0 0 40 48" fill="none" xmlns="http://www.w3.org/2000/svg">
<g id="hover">
<path id="Shape" fill-rule="evenodd" clip-rule="evenodd" d="M19.815 0C25.1198 0 30.1125 2.08031 33.8051 5.82487C41.5542 13.522 41.5542 26.1079 33.7531 33.8051L20.9071 46.651C20.6471 46.963 20.231 47.1191 19.763 47.1191C19.2949 47.1191 18.9308 46.963 18.6188 46.651L5.77286 33.8051C2.08031 30.0605 0 25.1198 0 19.815C0 14.5102 2.08031 9.51743 5.82487 5.77286C9.51743 2.08031 14.5102 0 19.815 0ZM12.8459 19.6069C12.8459 23.4555 15.9664 26.576 19.815 26.576C23.6635 26.576 26.784 23.4555 26.784 19.6069C26.784 15.7584 23.6635 12.6379 19.815 12.6379C15.9664 12.6379 12.8459 15.7584 12.8459 19.6069Z" fill="#079FC2"/>
<path id="Oval 4" fill-rule="evenodd" clip-rule="evenodd" d="M18.75 30C24.1348 30 28.5 25.6348 28.5 20.25C28.5 14.8652 24.1348 10.5 18.75 10.5C13.3652 10.5 9 14.8652 9 20.25C9 25.6348 13.3652 30 18.75 30Z" fill="#079FC2"/>
<path id="3" d="M18.6875 19.2646H19.6992C20.2096 19.2601 20.613 19.1279 20.9092 18.8682C21.21 18.6084 21.3604 18.2324 21.3604 17.7402C21.3604 17.2663 21.235 16.8994 20.9844 16.6396C20.7383 16.3753 20.36 16.2432 19.8496 16.2432C19.403 16.2432 19.0361 16.373 18.749 16.6328C18.4619 16.888 18.3184 17.223 18.3184 17.6377H16.6572C16.6572 17.1273 16.7917 16.6624 17.0605 16.2432C17.334 15.8239 17.7122 15.498 18.1953 15.2656C18.6829 15.0286 19.2275 14.9102 19.8291 14.9102C20.8226 14.9102 21.6019 15.1608 22.167 15.6621C22.7367 16.1589 23.0215 16.8516 23.0215 17.7402C23.0215 18.1868 22.8779 18.6084 22.5908 19.0049C22.3083 19.3968 21.9414 19.693 21.4902 19.8936C22.0371 20.0804 22.4518 20.3743 22.7344 20.7754C23.0215 21.1764 23.165 21.6549 23.165 22.2109C23.165 23.1042 22.8574 23.8151 22.2422 24.3438C21.6315 24.8724 20.8271 25.1367 19.8291 25.1367C18.8721 25.1367 18.0882 24.8815 17.4775 24.3711C16.8669 23.8607 16.5615 23.1816 16.5615 22.334H18.2227C18.2227 22.7715 18.3685 23.127 18.6602 23.4004C18.9564 23.6738 19.3529 23.8105 19.8496 23.8105C20.3646 23.8105 20.7702 23.6738 21.0664 23.4004C21.3626 23.127 21.5107 22.7305 21.5107 22.2109C21.5107 21.6868 21.3558 21.2835 21.0459 21.001C20.736 20.7184 20.2757 20.5771 19.665 20.5771H18.6875V19.2646Z" fill="#1F252D"/>
</g>
</svg>
